<?xml version="1.0" encoding="UTF-8" standalone="no"?>
<!-- Created with Inkscape (http://www.inkscape.org/) -->

<svg
   xmlns:dc="http://purl.org/dc/elements/1.1/"
   xmlns:cc="http://creativecommons.org/ns#"
   xmlns:rdf="http://www.w3.org/1999/02/22-rdf-syntax-ns#"
   xmlns:svg="http://www.w3.org/2000/svg"
   xmlns="http://www.w3.org/2000/svg"
   xmlns:xlink="http://www.w3.org/1999/xlink"
   xmlns:sodipodi="http://sodipodi.sourceforge.net/DTD/sodipodi-0.dtd"
   xmlns:inkscape="http://www.inkscape.org/namespaces/inkscape"
   width="16"
   height="16"
   id="svg2"
   version="1.1"
   inkscape:version="0.47pre4 r22446"
   inkscape:export-filename="/home/mdupont/2009/11/RedLandMySql/root/static/icons/type2.png"
   inkscape:export-xdpi="10.38"
   inkscape:export-ydpi="10.38"
   sodipodi:docname="chan.svg">
  <defs
     id="defs4">
    <linearGradient
       id="linearGradient3647">
      <stop
         style="stop-color:#006400;stop-opacity:1;"
         offset="0"
         id="stop3649" />
      <stop
         style="stop-color:#08a392;stop-opacity:1;"
         offset="1"
         id="stop3651" />
    </linearGradient>
    <inkscape:perspective
       sodipodi:type="inkscape:persp3d"
       inkscape:vp_x="0 : 526.18109 : 1"
       inkscape:vp_y="0 : 1000 : 0"
       inkscape:vp_z="744.09448 : 526.18109 : 1"
       inkscape:persp3d-origin="372.04724 : 350.78739 : 1"
       id="perspective10" />
    <inkscape:perspective
       id="perspective2849"
       inkscape:persp3d-origin="0.5 : 0.33333333 : 1"
       inkscape:vp_z="1 : 0.5 : 1"
       inkscape:vp_y="0 : 1000 : 0"
       inkscape:vp_x="0 : 0.5 : 1"
       sodipodi:type="inkscape:persp3d" />
    <linearGradient
       id="linearGradient3647-9">
      <stop
         style="stop-color:#006400;stop-opacity:1;"
         offset="0"
         id="stop3649-2" />
      <stop
         style="stop-color:#08a392;stop-opacity:1;"
         offset="1"
         id="stop3651-2" />
    </linearGradient>
    <radialGradient
       r="3.3158889"
       fy="9.1210833"
       fx="10.192178"
       cy="9.1210833"
       cx="10.192178"
       gradientTransform="matrix(1,0,0,1.1424609,-6.8762889,-6.6322082)"
       gradientUnits="userSpaceOnUse"
       id="radialGradient2858"
       xlink:href="#linearGradient3647-9"
       inkscape:collect="always" />
    <inkscape:perspective
       id="perspective2849-2"
       inkscape:persp3d-origin="0.5 : 0.33333333 : 1"
       inkscape:vp_z="1 : 0.5 : 1"
       inkscape:vp_y="0 : 1000 : 0"
       inkscape:vp_x="0 : 0.5 : 1"
       sodipodi:type="inkscape:persp3d" />
    <linearGradient
       id="linearGradient3647-2">
      <stop
         style="stop-color:#006400;stop-opacity:1;"
         offset="0"
         id="stop3649-9" />
      <stop
         style="stop-color:#08a392;stop-opacity:1;"
         offset="1"
         id="stop3651-0" />
    </linearGradient>
    <radialGradient
       r="3.3158889"
       fy="9.1210833"
       fx="10.192178"
       cy="9.1210833"
       cx="10.192178"
       gradientTransform="matrix(1,0,0,1.1424609,-6.8762889,-6.6322082)"
       gradientUnits="userSpaceOnUse"
       id="radialGradient2858-5"
       xlink:href="#linearGradient3647-2"
       inkscape:collect="always" />
    <inkscape:perspective
       id="perspective2849-27"
       inkscape:persp3d-origin="0.5 : 0.33333333 : 1"
       inkscape:vp_z="1 : 0.5 : 1"
       inkscape:vp_y="0 : 1000 : 0"
       inkscape:vp_x="0 : 0.5 : 1"
       sodipodi:type="inkscape:persp3d" />
    <linearGradient
       id="linearGradient3647-1">
      <stop
         style="stop-color:#006400;stop-opacity:1;"
         offset="0"
         id="stop3649-96" />
      <stop
         style="stop-color:#08a392;stop-opacity:1;"
         offset="1"
         id="stop3651-3" />
    </linearGradient>
    <radialGradient
       r="3.3158889"
       fy="9.1210833"
       fx="10.192178"
       cy="9.1210833"
       cx="10.192178"
       gradientTransform="matrix(1,0,0,1.1424609,-6.8762889,-6.6322082)"
       gradientUnits="userSpaceOnUse"
       id="radialGradient2858-6"
       xlink:href="#linearGradient3647-1"
       inkscape:collect="always" />
    <inkscape:perspective
       id="perspective2849-23"
       inkscape:persp3d-origin="0.5 : 0.33333333 : 1"
       inkscape:vp_z="1 : 0.5 : 1"
       inkscape:vp_y="0 : 1000 : 0"
       inkscape:vp_x="0 : 0.5 : 1"
       sodipodi:type="inkscape:persp3d" />
    <linearGradient
       id="linearGradient3647-8">
      <stop
         style="stop-color:#006400;stop-opacity:1;"
         offset="0"
         id="stop3649-7" />
      <stop
         style="stop-color:#08a392;stop-opacity:1;"
         offset="1"
         id="stop3651-4" />
    </linearGradient>
    <radialGradient
       r="3.3158889"
       fy="9.1210833"
       fx="10.192178"
       cy="9.1210833"
       cx="10.192178"
       gradientTransform="matrix(1,0,0,1.1424609,-6.8762889,-6.6322082)"
       gradientUnits="userSpaceOnUse"
       id="radialGradient2858-1"
       xlink:href="#linearGradient3647-8"
       inkscape:collect="always" />
    <inkscape:perspective
       id="perspective3728"
       inkscape:persp3d-origin="0.5 : 0.33333333 : 1"
       inkscape:vp_z="1 : 0.5 : 1"
       inkscape:vp_y="0 : 1000 : 0"
       inkscape:vp_x="0 : 0.5 : 1"
       sodipodi:type="inkscape:persp3d" />
    <linearGradient
       inkscape:collect="always"
       xlink:href="#linearGradient3647-8-0"
       id="linearGradient3718-7"
       gradientUnits="userSpaceOnUse"
       gradientTransform="matrix(1,0,0,1.6809822,0.99063274,-704.4184)"
       x1="-1.0123352"
       y1="1038.9519"
       x2="4.4478211"
       y2="1038.9519" />
    <linearGradient
       id="linearGradient3647-8-0">
      <stop
         style="stop-color:#006400;stop-opacity:1;"
         offset="0"
         id="stop3649-7-5" />
      <stop
         style="stop-color:#08a392;stop-opacity:1;"
         offset="1"
         id="stop3651-4-1" />
    </linearGradient>
    <inkscape:perspective
       id="perspective3728-1"
       inkscape:persp3d-origin="0.5 : 0.33333333 : 1"
       inkscape:vp_z="1 : 0.5 : 1"
       inkscape:vp_y="0 : 1000 : 0"
       inkscape:vp_x="0 : 0.5 : 1"
       sodipodi:type="inkscape:persp3d" />
    <linearGradient
       inkscape:collect="always"
       xlink:href="#linearGradient3647-8-9"
       id="linearGradient3718-2"
       gradientUnits="userSpaceOnUse"
       gradientTransform="matrix(1,0,0,1.6809822,0.99063274,-704.4184)"
       x1="-1.0123352"
       y1="1038.9519"
       x2="4.4478211"
       y2="1038.9519" />
    <linearGradient
       id="linearGradient3647-8-9">
      <stop
         style="stop-color:#006400;stop-opacity:1;"
         offset="0"
         id="stop3649-7-2" />
      <stop
         style="stop-color:#08a392;stop-opacity:1;"
         offset="1"
         id="stop3651-4-6" />
    </linearGradient>
    <inkscape:perspective
       id="perspective3728-7"
       inkscape:persp3d-origin="0.5 : 0.33333333 : 1"
       inkscape:vp_z="1 : 0.5 : 1"
       inkscape:vp_y="0 : 1000 : 0"
       inkscape:vp_x="0 : 0.5 : 1"
       sodipodi:type="inkscape:persp3d" />
    <linearGradient
       inkscape:collect="always"
       xlink:href="#linearGradient3647-8-1"
       id="linearGradient3718-1"
       gradientUnits="userSpaceOnUse"
       gradientTransform="matrix(1,0,0,1.6809822,0.99063274,-704.4184)"
       x1="-1.0123352"
       y1="1038.9519"
       x2="4.4478211"
       y2="1038.9519" />
    <linearGradient
       id="linearGradient3647-8-1">
      <stop
         style="stop-color:#006400;stop-opacity:1;"
         offset="0"
         id="stop3649-7-8" />
      <stop
         style="stop-color:#08a392;stop-opacity:1;"
         offset="1"
         id="stop3651-4-0" />
    </linearGradient>
    <linearGradient
       inkscape:collect="always"
       xlink:href="#linearGradient3647-8-9"
       id="linearGradient3848"
       x1="1.4175701"
       y1="10.860831"
       x2="7.355937"
       y2="10.860831"
       gradientUnits="userSpaceOnUse" />
    <linearGradient
       inkscape:collect="always"
       xlink:href="#linearGradient3647-8-1"
       id="linearGradient3856"
       x1="2.2926011"
       y1="4.858963"
       x2="6.5151129"
       y2="4.858963"
       gradientUnits="userSpaceOnUse" />
    <linearGradient
       inkscape:collect="always"
       xlink:href="#linearGradient3647-8-1"
       id="linearGradient3864"
       x1="1.1950542"
       y1="6.7856755"
       x2="6.192924"
       y2="6.7856755"
       gradientUnits="userSpaceOnUse" />
    <linearGradient
       inkscape:collect="always"
       xlink:href="#linearGradient3647-8-1"
       id="linearGradient3878"
       x1="1.7156816"
       y1="11.787795"
       x2="8.3935957"
       y2="11.787795"
       gradientUnits="userSpaceOnUse" />
    <linearGradient
       inkscape:collect="always"
       xlink:href="#linearGradient3647-8-1"
       id="linearGradient3886"
       x1="1.2297186"
       y1="7.3995318"
       x2="8.3920403"
       y2="7.3995318"
       gradientUnits="userSpaceOnUse" />
  </defs>
  <sodipodi:namedview
     id="base"
     pagecolor="#ffffff"
     bordercolor="#666666"
     borderopacity="1.0"
     inkscape:pageopacity="0.0"
     inkscape:pageshadow="2"
     inkscape:zoom="30.875"
     inkscape:cx="9.9299734"
     inkscape:cy="6.6895414"
     inkscape:document-units="px"
     inkscape:current-layer="layer1"
     showgrid="false"
     inkscape:window-width="1024"
     inkscape:window-height="743"
     inkscape:window-x="0"
     inkscape:window-y="2"
     inkscape:window-maximized="1" />
  <metadata
     id="metadata7">
    <rdf:RDF>
      <cc:Work
         rdf:about="">
        <dc:format>image/svg+xml</dc:format>
        <dc:type
           rdf:resource="http://purl.org/dc/dcmitype/StillImage" />
        <dc:title />
      </cc:Work>
    </rdf:RDF>
  </metadata>
  <g
     inkscape:label="Layer 1"
     inkscape:groupmode="layer"
     id="layer1"
     transform="translate(0,-1036.3622)">
    <path
       style="opacity:0.98999999000000005;color:#000000;fill:#ffff00;fill-opacity:1;fill-rule:nonzero;stroke:url(#linearGradient3856);stroke-width:0.29899998999999999;stroke-linecap:round;stroke-linejoin:miter;stroke-miterlimit:3.70000004999999987;stroke-opacity:1;stroke-dasharray:none;stroke-dashoffset:1.20890015000000006;marker:none;visibility:visible;display:inline;overflow:visible;enable-background:accumulate"
       id="path3836"
       d="M 2.4876718,3.7576678 C 2.5439203,3.6794469 2.592803,3.5964042 2.6419946,3.513676 2.693675,3.4181219 2.7450079,3.3229224 2.8080616,3.2343081 2.8592952,3.1672784 2.9076779,3.0988016 2.9699439,3.0414707 3.1112947,2.9163088 3.2826618,2.8311234 3.4513569,2.7480413 c 0.066032,-0.023487 0.1313135,-0.049195 0.1979284,-0.071256 0.07821,-0.019402 0.157451,-0.034747 0.2367191,-0.049791 0.077539,-0.012943 0.1564453,-0.015006 0.2348924,-0.01683 0.083057,-0.00163 0.1661266,2.081e-4 0.2491828,0.00101 0.1054433,-0.00468 0.2097053,0.0045 0.3143038,0.016156 0.092081,0.014105 0.1799333,0.039356 0.2674545,0.070305 0.1013626,0.035682 0.1894831,0.095807 0.2765935,0.1570234 0.1188998,0.079018 0.2318424,0.166375 0.3464253,0.2513989 0.1110132,0.085467 0.2200751,0.1742416 0.3183216,0.2742844 0.081504,0.1003736 0.1567136,0.2059566 0.2339404,0.3097495 0.066351,0.095182 0.1258854,0.1951334 0.1778784,0.2988439 0.045483,0.1059792 0.081702,0.2155619 0.1109924,0.3270154 0.031065,0.094482 0.045911,0.1928118 0.067589,0.2895726 0.019041,0.082952 0.026818,0.1680229 0.029882,0.2529203 0.00279,0.09385 0.00141,0.1877597 4.562e-4,0.2816284 -0.00235,0.099788 -0.020378,0.1976866 -0.039059,0.2953711 -0.021889,0.094435 -0.041728,0.1893005 -0.067521,0.2827755 C 6.3804238,5.8246491 6.346749,5.9289654 6.3107932,6.0326016 6.2740605,6.1402006 6.2244225,6.2424624 6.1643488,6.338807 6.100556,6.4356963 6.0268296,6.5264606 5.9427469,6.6063993 5.7804314,6.7523309 5.5862494,6.8445518 5.3968161,6.9530361 c -0.087332,0.039843 -0.1778467,0.07083 -0.2709638,0.093712 -0.096908,0.028707 -0.1968604,0.044867 -0.2972768,0.05466 -0.076201,0.0067 -0.1527299,0.00562 -0.229134,0.0057 C 4.5213621,7.1066994 4.443284,7.1065535 4.3652025,7.1067103 4.2949963,7.1128478 4.2274985,7.101297 4.1587142,7.0897881 4.0926019,7.0726503 4.0288697,7.0482856 3.9631491,7.0300178 3.8932265,7.002433 3.8197793,6.9864289 3.7495906,6.9594972 3.6655849,6.9303954 3.5820711,6.8996015 3.4989191,6.8680623 3.4094002,6.8368501 3.3188523,6.8081859 3.2317605,6.7705563 3.1605808,6.7409367 3.0902109,6.7087068 3.0219971,6.6727075 2.962044,6.6363847 2.900381,6.6020928 2.8480509,6.5550096 2.7938429,6.5111527 2.7417866,6.4644715 2.6949807,6.4127671 2.6450019,6.3576854 2.5929611,6.3050202 2.5443654,6.2485271 2.5016469,6.1951044 2.4575349,6.1437284 2.4261394,6.0825749 2.3929637,6.0237858 2.3769165,5.9581785 2.3574524,5.8941318 2.3416702,5.8278497 2.3270691,5.7610535 2.3146332,5.6940217 2.3015396,5.6207392 2.2970002,5.5464024 2.2943746,5.4721304 c -7.242e-4,-0.066848 -0.00429,-0.1338837 0.00137,-0.200561 0.011278,-0.062377 0.016465,-0.1258221 0.032367,-0.1872529 0.013373,-0.057927 0.032189,-0.1143709 0.045527,-0.1722876 0.00181,-0.010184 0.00363,-0.020367 0.00544,-0.030551 0,0 0.3397359,-0.1663906 0.3397359,-0.1663906 l 0,0 c -0.00152,0.010724 -0.00304,0.021449 -0.00456,0.032173 -0.011245,0.059036 -0.030812,0.1154368 -0.043411,0.1740942 -0.018229,0.059938 -0.025728,0.1208715 -0.036274,0.1826747 -0.010433,0.06458 -0.00291,0.1306285 -0.00445,0.1958401 0.00151,0.072488 0.00402,0.1452268 0.016719,0.2167841 0.013327,0.065592 0.028534,0.1306531 0.041985,0.1961718 0.018697,0.061944 0.033753,0.1257065 0.066049,0.1823845 0.02907,0.058535 0.072407,0.1071198 0.1117752,0.1588688 0.049005,0.055595 0.1005379,0.1084491 0.1500263,0.1635334 0.046646,0.050484 0.1004541,0.093139 0.1527428,0.1375801 0.051003,0.04351 0.109238,0.07797 0.1674591,0.1108705 0.067938,0.034081 0.1364209,0.06725 0.2065146,0.096691 0.086776,0.036275 0.1757609,0.06643 0.2647117,0.096876 0.084341,0.029897 0.1679741,0.06185 0.2529928,0.089774 0.070732,0.024365 0.143467,0.041962 0.2138177,0.067467 0.063994,0.019861 0.1273475,0.042291 0.1931003,0.055908 0.067028,0.011112 0.1338036,0.015393 0.2018261,0.012681 0.077959,4.241e-4 0.1559163,7.581e-4 0.2338761,4.949e-4 0.075307,-2.086e-4 0.1507256,-0.0011 0.2257779,-0.0079 0.098783,-0.010626 0.1964126,-0.028715 0.2916294,-0.057595 0.092071,-0.0256 0.1822157,-0.058609 0.267378,-0.1022671 -0.5705614,0.3317134 -0.2037801,0.1315465 -0.088713,0.028047 0.08769,-0.073841 0.1603105,-0.1638806 0.2248069,-0.2583371 0.063066,-0.092772 0.1132415,-0.1922713 0.1509018,-0.298115 0.034572,-0.1030886 0.071571,-0.2054294 0.095717,-0.3116963 0.026214,-0.092291 0.04468,-0.1862565 0.06801,-0.2792507 0.017076,-0.096477 0.040058,-0.1918251 0.043944,-0.2902725 C 6.1823855,5.2157203 6.1820454,5.1228656 6.1798998,5.0300402 6.1764402,4.9469733 6.1722488,4.8636761 6.1543075,4.7821905 6.1342794,4.6852122 6.1190944,4.5871504 6.0900487,4.4922596 6.0638629,4.382733 6.0270058,4.2760279 5.9829967,4.1723769 5.9317136,4.0706733 5.8746993,3.9720861 5.8109358,3.8776159 5.7344664,3.7752831 5.6607359,3.6706215 5.5793893,3.5722168 5.4826937,3.4734765 5.3771351,3.3839118 5.2664252,3.3012115 5.1524223,3.2153636 5.0384521,3.1294475 4.9177201,3.0530713 4.8308163,2.9951335 4.7418965,2.9397439 4.6418364,2.9071141 4.5567531,2.8768614 4.4692159,2.8563102 4.3797955,2.8432428 4.2765553,2.830514 4.1734651,2.8261864 4.0694121,2.8295753 c -0.084202,6.136e-4 -0.168403,0.00149 -0.2525976,0.00272 -0.077188,0.0022 -0.1546071,0.0058 -0.2304743,0.021385 -0.07825,0.015763 -0.1575467,0.028765 -0.2334368,0.053945 -0.066153,0.024012 -0.1328912,0.047273 -0.1969564,0.07642 -0.1324167,0.065192 -0.032653,0.016931 0.2672496,-0.1586103 0.00898,-0.00526 -0.018441,0.0097 -0.027166,0.015366 -0.01761,0.011438 -0.034682,0.023752 -0.051082,0.036866 -0.00896,0.00716 -0.017097,0.015299 -0.025646,0.022949 -0.068882,0.050944 -0.11685,0.1193419 -0.1693791,0.1860685 -0.06645,0.08672 -0.1208446,0.1802675 -0.1706717,0.2774228 -0.047516,0.079278 -0.092471,0.1602301 -0.139686,0.2395937 0,0 -0.3518942,0.1539655 -0.3518942,0.1539655 z"
       transform="translate(0,1036.3622)" />
    <path
       style="opacity:0.98999999000000005;color:#000000;fill:#ffff00;fill-opacity:1;fill-rule:nonzero;stroke:url(#linearGradient3886);stroke-width:0.29899998999999999;stroke-linecap:round;stroke-linejoin:miter;stroke-miterlimit:3.70000004999999987;stroke-opacity:1;stroke-dasharray:none;stroke-dashoffset:1.20890015000000006;marker:none;visibility:visible;display:inline;overflow:visible;enable-background:accumulate"
       id="path3866"
       d="M 5.719707,5.3678656 C 5.6706364,5.2973422 5.5985888,5.2466118 5.5337794,5.1913827 5.464352,5.137595 5.3927039,5.0872898 5.3192468,5.0392065 5.2410468,4.9948239 5.1622646,4.951791 5.0805186,4.9142656 5.0111916,4.8856325 4.9408373,4.8601897 4.8699762,4.8356599 4.8063015,4.8174955 4.7407712,4.8109308 4.6762768,4.7963153 4.6049381,4.7859858 4.5346168,4.7714383 4.4636551,4.7587367 4.3870341,4.7444992 4.3115002,4.7266102 4.2338973,4.7174983 4.1540588,4.7004094 4.0743927,4.6845393 3.9965795,4.6594593 3.9143231,4.6365631 3.8329629,4.6104341 3.7490243,4.5941544 3.6823729,4.5689614 3.6108135,4.5644145 3.5425559,4.5466372 3.4767801,4.5332447 3.4142127,4.5095092 3.348381,4.4962649 3.2828164,4.4901255 3.2197162,4.4716547 3.1547359,4.4615386 3.0898639,4.4490814 3.0231682,4.438532 2.9595765,4.4200181 2.896914,4.3977896 2.8298172,4.3979161 2.7658091,4.382984 2.7026299,4.3664627 2.6377739,4.3599011 2.5727794,4.356237 c -0.065467,-0.0044 -0.1294695,-0.02068 -0.1948958,-0.027882 -0.06419,-0.00599 -0.1287114,-0.00645 -0.1931257,-0.00688 -0.069353,-0.00549 -0.1283565,0.025209 -0.1889039,0.05352 -0.1514205,0.086629 0.1719502,-0.098828 0.2582072,-0.1477478 0.01094,-0.0062 -0.021553,0.012974 -0.032178,0.019704 -0.029272,0.018543 -0.055779,0.03972 -0.082739,0.061406 -0.049415,0.035672 -0.092247,0.079153 -0.1357187,0.1215765 -0.035802,0.037681 -0.073431,0.073904 -0.1070762,0.113537 -0.034975,0.042226 -0.063669,0.087844 -0.08807,0.1367855 -0.030687,0.055952 -0.053282,0.1158709 -0.076012,0.1753624 -0.03063,0.072124 -0.058114,0.1455261 -0.079681,0.2208739 -0.018789,0.086773 -0.036006,0.1740123 -0.047676,0.262064 -0.013563,0.1219972 -0.014122,0.2448949 -0.016412,0.3674734 -0.011558,0.1598511 -0.022802,0.3196243 -0.028249,0.4798222 -0.00462,0.1516322 -0.00579,0.3034 -0.00484,0.4550965 0.00258,0.1450889 0.021134,0.2882627 0.048414,0.4305008 0.028016,0.1378345 0.067447,0.2726966 0.1082118,0.407174 0.039836,0.1312793 0.096628,0.2558834 0.1594886,0.3774471 0.05645,0.1047767 0.1236284,0.2029148 0.1926102,0.2996896 0.065381,0.079533 0.1213573,0.1658116 0.1763785,0.2526998 0.059211,0.088349 0.1330603,0.1663177 0.2035545,0.2458228 0.064088,0.073896 0.1356452,0.1408742 0.2001688,0.214304 0.066579,0.071891 0.1390902,0.1379247 0.2118317,0.2034532 0.085277,0.075595 0.1657645,0.1575452 0.2394771,0.2445014 0.069638,0.082589 0.1364107,0.1676905 0.200303,0.2548027 0.067891,0.088497 0.1387673,0.1759525 0.224487,0.2477986 0.078182,0.071257 0.1689894,0.1273319 0.2560349,0.1870918 0.076894,0.06239 0.1613934,0.11208 0.2494782,0.156658 0.079383,0.03444 0.1588315,0.06858 0.2378825,0.103783 0.088817,0.0383 0.1822057,0.06319 0.2760202,0.08581 0.1063438,0.01925 0.2095509,0.05154 0.3155281,0.07234 0.1201788,0.03206 0.2436901,0.04495 0.3674332,0.05269 0.1176023,0.0056 0.2353503,0.0053 0.3530492,0.0053 0.1212655,-0.0012 0.2426379,0.0038 0.3636948,-0.0042 0.1491634,-0.0052 0.2955037,-0.032 0.4408469,-0.06421 0.1461976,-0.03174 0.2888714,-0.07364 0.4251264,-0.135622 0.1139666,-0.05649 0.3643053,-0.186144 -0.1424301,0.08782 -0.019314,0.01044 0.036892,-0.02383 0.055029,-0.0362 0.055164,-0.03763 0.048623,-0.03411 0.1001023,-0.07603 C 6.9271062,10.167741 7.0146919,10.059229 7.1079986,9.956881 7.2086062,9.845014 7.3101015,9.7337293 7.4056459,9.6174707 7.4925263,9.5137261 7.5772057,9.407862 7.6540239,9.2963961 7.728492,9.1943522 7.7848102,9.081566 7.8358006,8.9664578 7.876454,8.8760816 7.9120251,8.7839483 7.9435683,8.6900857 7.9782712,8.5963652 7.99934,8.4993827 8.0189434,8.4017173 8.0440965,8.294141 8.0525855,8.1840547 8.0582887,8.0740553 8.0668622,7.9615257 8.0554222,7.85026 8.0351921,7.7397073 8.0122535,7.6341377 7.9854694,7.5299552 7.951256,7.4274897 7.9207223,7.3250107 7.8661055,7.233802 7.8099621,7.1438632 7.7526743,7.0509831 7.6852571,6.965478 7.620211,6.8781352 7.5654637,6.7975282 7.4977827,6.7294866 7.4257426,6.6647094 7.366751,6.6143424 7.3054006,6.566849 7.2452501,6.5177485 7.1842753,6.4656219 7.1246106,6.4116107 7.0708213,6.3520426 7.0228167,6.2921381 6.9724929,6.2342175 6.9245049,6.1743411 6.8793527,6.1294122 6.8446204,6.0756103 6.8036395,6.0272175 6.7670429,5.9785645 6.7323987,5.9286281 6.6977882,5.878536 6.6659192,5.841521 6.6271554,5.8112593 6.587477,5.7830861 c 0,0 0.3203361,-0.2027892 0.3203361,-0.2027892 l 0,0 c 0.041447,0.032169 0.08362,0.064547 0.1164092,0.105921 0.034728,0.048798 0.067354,0.09897 0.1038762,0.1464577 0.0398,0.049635 0.077788,0.1007712 0.1204121,0.1481323 0.047003,0.059545 0.09478,0.118448 0.143277,0.1767924 0.052707,0.058393 0.1127146,0.1096308 0.1731793,0.1598163 0.060244,0.04941 0.1200879,0.099292 0.1790279,0.1501907 0.072797,0.066971 0.1385533,0.1398023 0.1952711,0.2211375 0.066441,0.087555 0.1319613,0.1756807 0.1910494,0.2684767 0.058633,0.091911 0.1135362,0.1865318 0.146701,0.2911002 0.03351,0.104666 0.06195,0.2100433 0.084639,0.3176809 0.019844,0.1129498 0.037851,0.2263408 0.027232,0.3414772 C 8.3846044,8.0188932 8.3765166,8.1305516 8.353462,8.2398811 8.3320874,8.33779 8.3169794,8.4368244 8.2824334,8.5315478 8.2479622,8.6263691 8.2163092,8.7219055 8.1710323,8.8125167 8.1215151,8.9301795 8.0648641,9.0457686 7.9900145,9.1496144 7.9147269,9.2635484 7.8298871,9.3708138 7.7410785,9.4743983 7.646877,9.5924193 7.5434463,9.702658 7.4439573,9.8161991 c -0.094413,0.1004586 -0.176897,0.2127739 -0.284647,0.3001169 -0.1875097,0.166801 -0.4164381,0.282182 -0.641637,0.390171 -0.1378488,0.05694 -0.2809319,0.09596 -0.4266013,0.127627 -0.1476346,0.0307 -0.2960297,0.05614 -0.4470706,0.0619 -0.1224828,0.0064 -0.245177,0.0033 -0.3677959,0.0044 -0.1175042,-4.3e-4 -0.2351462,-8.13e-4 -0.3524289,-0.0088 -0.125369,-0.0092 -0.2498653,-0.02529 -0.372162,-0.05528 -0.1062249,-0.02206 -0.2106959,-0.05167 -0.3171081,-0.07303 -0.09604,-0.02362 -0.1919373,-0.04902 -0.2827304,-0.08897 C 3.8718454,10.440452 3.7932,10.403605 3.7141836,10.367656 3.6251625,10.322208 3.5420215,10.267745 3.4633344,10.206096 3.3751464,10.145749 3.2841278,10.088007 3.2056645,10.014982 3.1208145,9.9384694 3.0456683,9.8515044 2.9767995,9.7604606 2.9124363,9.6747569 2.8471616,9.5896693 2.7779665,9.507785 2.7044675,9.4227949 2.627371,9.3401747 2.5416585,9.2673178 2.4663922,9.2016523 2.3908341,9.136048 2.3237487,9.0618125 2.2605981,8.9876282 2.1891623,8.920814 2.126496,8.8461029 2.0553791,8.7646012 1.9792625,8.6861851 1.9192323,8.5960099 1.8633036,8.5104192 1.8092872,8.4236307 1.7451605,8.3438075 1.6761254,8.2450385 1.6086519,8.1450468 1.5529329,8.0379617 1.4895568,7.9142724 1.4325388,7.7872075 1.3907939,7.6544045 1.3495598,7.5186032 1.310464,7.3822291 1.282223,7.2430283 1.2547713,7.0986628 1.2328886,6.9541209 1.2297186,6.8067886 c 0.00172,-0.1525112 0.00173,-0.3050513 0.00679,-0.4575136 0.00653,-0.1591605 0.016246,-0.3181043 0.025313,-0.4771302 -3.264e-4,-0.1229485 7.198e-4,-0.2460649 0.01012,-0.3687148 0.00875,-0.089362 0.024575,-0.1774516 0.041615,-0.2654811 0.020063,-0.076282 0.044696,-0.1516771 0.077589,-0.2234619 0.021611,-0.060565 0.042503,-0.1214186 0.070633,-0.1792443 0.02878,-0.046707 0.045479,-0.1012742 0.085965,-0.1407032 0.027559,-0.044974 0.0686,-0.080449 0.1051312,-0.1179372 0.040189,-0.047261 0.088638,-0.088003 0.135617,-0.1282752 0.028299,-0.020867 0.053142,-0.046308 0.082258,-0.065967 0.1336452,-0.090237 0.2757291,-0.170025 0.4203611,-0.2418488 0.063762,-0.028452 0.1291149,-0.046167 0.1997601,-0.040954 0.065273,9.299e-4 0.1306792,0.0023 0.1955383,0.010389 0.064602,0.00884 0.128392,0.024229 0.1937681,0.026203 0.065957,0.00545 0.1312201,0.015293 0.1956348,0.030747 0.065472,0.010565 0.1314189,0.018584 0.1949011,0.038925 0.064123,0.014522 0.1284661,0.028937 0.1934853,0.038757 0.064933,0.01198 0.129302,0.026669 0.1946521,0.036319 0.06507,0.015759 0.1284865,0.03761 0.1942399,0.050746 0.068793,0.013845 0.1374486,0.027413 0.2046597,0.048062 0.083475,0.019743 0.1654609,0.045472 0.2479884,0.068705 0.07754,0.021802 0.1563509,0.037942 0.2356637,0.051886 0.077426,0.011698 0.1534661,0.030119 0.230706,0.04289 0.071421,0.013785 0.1432936,0.023644 0.2146117,0.03772 0.065423,0.014038 0.1328137,0.019624 0.1958208,0.043616 0.070869,0.025959 0.1419616,0.051242 0.2103676,0.083378 0.08172,0.040482 0.1628665,0.082247 0.2411635,0.1290944 0.075086,0.047928 0.1463615,0.1012149 0.2156093,0.1572364 0.066789,0.056447 0.1371042,0.1091893 0.1968413,0.173362 0,0 -0.3268142,0.200272 -0.3268142,0.200272 z"
       transform="translate(0,1036.3622)" />
    <path
       style="opacity:0.98999999000000005;color:#000000;fill:#ffff00;fill-opacity:1;fill-rule:nonzero;stroke:url(#linearGradient3878);stroke-width:0.29899998999999999;stroke-linecap:round;stroke-linejoin:miter;stroke-miterlimit:3.70000004999999987;stroke-opacity:1;stroke-dasharray:none;stroke-dashoffset:1.20890015000000006;marker:none;visibility:visible;display:inline;overflow:visible;enable-background:accumulate"
       id="path3870"
       d="M 6.9180875,9.7727238 C 6.8560456,9.7030442 6.7759313,9.6511935 6.6984054,9.6003296 6.6004948,9.5330125 6.4906042,9.4853929 6.378453,9.4474529 6.2642002,9.410524 6.1488949,9.3760021 6.0326049,9.3459186 5.92568,9.3213233 5.8187506,9.2971203 5.7116686,9.2732303 5.61383,9.257154 5.5171033,9.2356484 5.4186787,9.223105 5.314937,9.2058259 5.2119893,9.1845901 5.1083653,9.1666891 5.0114615,9.1562732 4.916069,9.1366163 4.8192568,9.1253687 4.7245781,9.1209556 4.6314396,9.1036598 4.5374075,9.0928292 4.4561459,9.0840146 4.3743585,9.083352 4.2927274,9.0820443 4.2023168,9.0815331 4.1119042,9.0808198 4.0214916,9.0809657 3.930689,9.0805892 3.8398884,9.081606 3.7490886,9.082189 3.6721652,9.0817554 3.5952402,9.0822307 3.5183168,9.0824758 3.4400581,9.0821053 3.3617975,9.082036 3.283538,9.0819617 c -0.07515,-1.33e-5 -0.1502992,8.619e-4 -0.2254478,2.807e-4 -0.073417,0.00278 -0.1479159,-0.00637 -0.2205646,0.00587 -0.070593,0.013357 -0.1414723,0.028564 -0.2100471,0.050345 -0.075079,0.017841 -0.1411423,0.056275 -0.2085984,0.091756 C 2.9765719,8.886936 2.6593645,9.0863362 2.543261,9.1896667 2.4853555,9.2436355 2.4412696,9.309701 2.3978668,9.3753286 2.3518122,9.4422281 2.3179361,9.5160084 2.286548,9.5905957 c -0.03678,0.089612 -0.068438,0.1812675 -0.099012,0.2731545 -0.025541,0.086135 -0.05141,0.1716188 -0.065195,0.2605208 -0.015276,0.07432 -0.030499,0.148359 -0.037831,0.223942 -0.0065,0.08883 -0.00719,0.177962 -0.00838,0.266987 -0.00971,0.12223 -0.02144,0.244179 -0.027614,0.366677 -0.00602,0.137359 -0.00638,0.274852 -0.00765,0.412308 -6.791e-4,0.138351 0.010453,0.277029 0.027874,0.41425 0.015618,0.09568 0.027477,0.192092 0.053784,0.285568 0.026561,0.07783 0.052025,0.156054 0.078411,0.234001 0.030796,0.0657 0.060217,0.132012 0.089517,0.198388 0.032721,0.07106 0.075337,0.136721 0.1169944,0.2027 0.046743,0.07877 0.095184,0.156373 0.141576,0.235358 0.050769,0.08044 0.1057041,0.158111 0.1654432,0.232136 0.063327,0.07409 0.1168334,0.155196 0.1773697,0.231583 0.07473,0.09727 0.1612444,0.183481 0.2542288,0.263084 0.099514,0.09696 0.2131816,0.176581 0.3285702,0.253143 0.1161108,0.08707 0.240085,0.161543 0.3687495,0.228232 0.1299494,0.06846 0.2663459,0.123598 0.4042125,0.173842 0.1140789,0.04194 0.2296451,0.08064 0.3469018,0.112803 0.1130979,0.02985 0.2301415,0.03475 0.3463821,0.03898 0.1579827,0.0035 0.3160132,0.0037 0.4740266,0.004 0.1836038,1.25e-4 0.3672101,-7e-6 0.550813,-6.87e-4 0.1669122,6.4e-5 0.334198,-0.01087 0.4986539,-0.03976 0.1477091,-0.0251 0.2926053,-0.06616 0.4344487,-0.114027 0.1186283,-0.03482 0.2339638,-0.0804 0.3457722,-0.13297 0.077132,-0.04207 0.4283235,-0.234044 -0.2266706,0.130774 -0.014466,0.0081 0.027978,-0.01774 0.041599,-0.02715 0.039268,-0.02714 0.075373,-0.05779 0.1113965,-0.08899 0.07389,-0.07525 0.1477645,-0.151006 0.2152626,-0.232146 0.063306,-0.08093 0.1221548,-0.165294 0.1817889,-0.248957 0.063921,-0.08553 0.1177215,-0.177623 0.1723394,-0.269161 0.049924,-0.08854 0.093426,-0.180594 0.1330659,-0.27414 0.044092,-0.104929 0.074272,-0.214665 0.1041908,-0.32421 0.02384,-0.09188 0.040428,-0.185437 0.059324,-0.278447 0.015895,-0.07918 0.019715,-0.160073 0.02195,-0.240593 0.00138,-0.08874 -0.010429,-0.177502 -0.023988,-0.265066 -0.014858,-0.08578 -0.031764,-0.171091 -0.049234,-0.256365 -0.023982,-0.07793 -0.034873,-0.158747 -0.0515,-0.238269 -0.015888,-0.08197 -0.032773,-0.163928 -0.054162,-0.244664 -0.019508,-0.07231 -0.04052,-0.144274 -0.064656,-0.215184 -0.022249,-0.06646 -0.05121,-0.130546 -0.082229,-0.193328 -0.032125,-0.06874 -0.068009,-0.135628 -0.1010992,-0.203904 -0.038096,-0.07236 -0.079443,-0.143021 -0.1198887,-0.214111 -0.033139,-0.05726 -0.066541,-0.113734 -0.094245,-0.17398 -0.015579,-0.04089 -0.030979,-0.08184 -0.048135,-0.122097 0,0 0.3290086,-0.185093 0.3290086,-0.185093 l 0,0 c 0.017768,0.0397 0.033673,0.08022 0.048641,0.121061 0.026998,0.05923 0.059556,0.115201 0.090432,0.172395 0.040654,0.07188 0.080792,0.144089 0.1202228,0.216626 0.03331,0.06798 0.071892,0.133319 0.1025624,0.202636 0.032307,0.06393 0.061896,0.129619 0.084816,0.197513 0.025162,0.07163 0.044659,0.145221 0.06388,0.218624 0.022115,0.08106 0.039212,0.163483 0.056368,0.245695 0.017393,0.07966 0.02427,0.161639 0.050753,0.239381 0.016178,0.08606 0.035136,0.171418 0.048098,0.258086 0.016275,0.08887 0.02686,0.180331 0.02911,0.270484 -0.00166,0.08254 -0.00464,0.165158 -0.018912,0.246692 -0.020149,0.09437 -0.040368,0.188686 -0.062447,0.282551 -0.03057,0.11035 -0.060522,0.220922 -0.1019986,0.327817 -0.036506,0.09619 -0.08189,0.188884 -0.130877,0.279269 -0.053756,0.09268 -0.1076944,0.185174 -0.1706196,0.272042 -0.060241,0.08371 -0.1184572,0.168947 -0.1808851,0.251018 -0.065941,0.08311 -0.1414796,0.15726 -0.2112243,0.237052 -0.1655363,0.150153 -0.3583728,0.262872 -0.5623301,0.356714 -0.1117431,0.04975 -0.2269282,0.09149 -0.3441576,0.126437 -0.1425123,0.04531 -0.2873604,0.08489 -0.4353452,0.107723 -0.1652851,0.0257 -0.3329052,0.03443 -0.5001204,0.0335 -0.1834372,-5.12e-4 -0.3668787,-3.33e-4 -0.550315,3.6e-4 -0.1604945,7.52e-4 -0.321027,0.0029 -0.4815052,-2.08e-4 -0.1187724,-0.0037 -0.2381687,-0.01111 -0.3527719,-0.04527 C 4.1727527,14.634339 4.0569116,14.59548 3.9431802,14.55115 3.8062779,14.496752 3.669395,14.44186 3.5394629,14.371946 3.4093001,14.304336 3.2842829,14.228689 3.1657177,14.142068 3.0500851,14.06366 2.936955,13.981383 2.8353113,13.885101 2.7400385,13.804251 2.6506842,13.717337 2.5733912,13.618784 2.5110312,13.543612 2.4569024,13.462972 2.3946442,13.387791 2.3342553,13.312033 2.2768608,13.23366 2.2256423,13.151375 c -0.045729,-0.0787 -0.095053,-0.154932 -0.1413506,-0.233296 -0.045009,-0.06641 -0.087457,-0.134535 -0.1217918,-0.207186 -0.029298,-0.06769 -0.062134,-0.13371 -0.090579,-0.201773 -0.025536,-0.07891 -0.052409,-0.157287 -0.078135,-0.236049 -0.027213,-0.09598 -0.038637,-0.194589 -0.050948,-0.29339 -0.017474,-0.139037 -0.024816,-0.280032 -0.026892,-0.420046 -5.746e-4,-0.137451 -6.118e-4,-0.27497 0.00415,-0.412353 0.00526,-0.121394 0.014734,-0.242422 0.024965,-0.363484 -8.21e-4,-0.08925 -0.0024,-0.17863 0.00301,-0.26777 0.00574,-0.07673 0.017149,-0.152189 0.037674,-0.226529 0.013315,-0.09145 0.037403,-0.179166 0.065254,-0.267161 0.028277,-0.092642 0.061109,-0.1840685 0.09601,-0.2743533 C 1.9747188,9.6711271 2.00892,9.5954189 2.0536216,9.5268499 2.0957095,9.4579535 2.1422055,9.3909856 2.196725,9.3313171 2.350998,9.1875188 2.5128176,9.0875826 2.7121918,8.9944413 c 0.067774,-0.036231 0.1381875,-0.066493 0.2129751,-0.085324 0.070967,-0.018535 0.141934,-0.038525 0.2151074,-0.046164 0.073977,-0.00438 0.1481487,-6.241e-4 0.2222233,-0.00188 0.074891,-5.671e-4 0.149782,2.798e-4 0.2246743,2.814e-4 0.07873,-7.38e-5 0.1574604,-1.434e-4 0.2361894,-5.109e-4 0.076669,2.464e-4 0.1533406,7.22e-4 0.2300099,2.521e-4 0.089823,5.294e-4 0.1796473,0.00144 0.2694717,8.767e-4 0.091353,-2.88e-5 0.1827088,-0.00132 0.2740603,-2.533e-4 0.082301,0.00108 0.1645961,0.00512 0.2463842,0.014737 0.093315,0.013032 0.1863901,0.027231 0.2805025,0.033445 0.096766,0.013198 0.1929444,0.030232 0.2897065,0.043467 0.1028315,0.020095 0.2058114,0.039158 0.3094165,0.054887 0.098652,0.014116 0.1963216,0.034655 0.2941688,0.053292 0.1066247,0.024444 0.2132793,0.048554 0.3193525,0.075351 0.1169309,0.031287 0.2331489,0.065554 0.3480471,0.1036019 0.1136498,0.041202 0.2244848,0.091496 0.3241982,0.160592 0.08188,0.052432 0.1631797,0.1069349 0.2362223,0.1713555 0,0 -0.3268143,0.200272 -0.3268143,0.200272 z"
       transform="translate(0,1036.3622)" />
  </g>
</svg>
