<?xml version="1.0" encoding="UTF-8" standalone="no"?>
<!-- Created with Inkscape (http://www.inkscape.org/) -->

<svg
   xmlns:dc="http://purl.org/dc/elements/1.1/"
   xmlns:cc="http://creativecommons.org/ns#"
   xmlns:rdf="http://www.w3.org/1999/02/22-rdf-syntax-ns#"
   xmlns:svg="http://www.w3.org/2000/svg"
   xmlns="http://www.w3.org/2000/svg"
   xmlns:sodipodi="http://sodipodi.sourceforge.net/DTD/sodipodi-0.dtd"
   xmlns:inkscape="http://www.inkscape.org/namespaces/inkscape"
   id="svg2918"
   version="1.1"
   inkscape:version="0.47pre4 r22446"
   width="500"
   height="412"
   sodipodi:docname="megaphone.svg"
   inkscape:export-filename="/home/mdupont/2009/11/RedLandMySql/root/static/icons/megaphone.png"
   inkscape:export-xdpi="10.38"
   inkscape:export-ydpi="10.38">
  <metadata
     id="metadata2924">
    <rdf:RDF>
      <cc:Work
         rdf:about="">
        <dc:format>image/svg+xml</dc:format>
        <dc:type
           rdf:resource="http://purl.org/dc/dcmitype/StillImage" />
        <dc:title></dc:title>
      </cc:Work>
    </rdf:RDF>
  </metadata>
  <defs
     id="defs2922">
    <inkscape:perspective
       sodipodi:type="inkscape:persp3d"
       inkscape:vp_x="0 : 0.5 : 1"
       inkscape:vp_y="0 : 1000 : 0"
       inkscape:vp_z="1 : 0.5 : 1"
       inkscape:persp3d-origin="0.5 : 0.33333333 : 1"
       id="perspective2926" />
  </defs>
  <sodipodi:namedview
     pagecolor="#ffffff"
     bordercolor="#666666"
     borderopacity="1"
     objecttolerance="10"
     gridtolerance="10"
     guidetolerance="10"
     inkscape:pageopacity="0"
     inkscape:pageshadow="2"
     inkscape:window-width="1024"
     inkscape:window-height="743"
     id="namedview2920"
     showgrid="false"
     inkscape:zoom="0.8100835"
     inkscape:cx="243.97507"
     inkscape:cy="306.0536"
     inkscape:window-x="-3"
     inkscape:window-y="2"
     inkscape:window-maximized="1"
     inkscape:current-layer="svg2918" />
  <path
     style="fill:#000000"
     d="m 216.42158,320.75144 c -7.39354,1.10229 -22.57768,9.54436 -28.12419,1.23585 -2.3642,-3.88397 -9.90467,-27.11755 -13.51801,-41.65145 -3.91935,-15.76478 -7.4948,-38.23019 -8.17268,-51.35098 -0.54881,-10.62242 -0.42552,-11.95318 1.28232,-13.84032 1.65099,-1.82432 1.70183,-2.23428 0.40278,-3.24757 -1.18332,-0.92302 -1.42215,-3.25141 -1.17031,-11.40968 0.24507,-7.93877 0.0196,-10.26854 -1,-10.33223 -0.72402,-0.0452 -2.6088,-0.29297 -4.18838,-0.55055 -2.64741,-0.43169 -2.74531,-0.34164 -1.25199,1.15168 1.20365,1.20364 1.3635,2.09926 0.62198,3.4848 -0.54891,1.02565 -0.99802,2.98908 -0.99802,4.36317 0,1.61635 -0.70291,2.72145 -1.99105,3.13029 -3.03349,0.96279 -4.01042,-0.21291 -3.99364,-4.80618 0.0166,-4.55324 0.67189,-6.08169 2.98469,-6.96209 0.825,-0.31405 -1.8525,-0.60652 -5.95,-0.64994 -5.79444,-0.0614 -7.18333,0.18772 -6.25,1.12105 1.98892,1.98892 1.35731,2.81031 -1.3651,1.77525 -1.4108,-0.53639 -6.10314,-0.97525 -10.42742,-0.97525 -7.12424,0 -8.04086,-0.22698 -9.76426,-2.41793 -1.04607,-1.32986 -2.6873,-5.31927 -3.64718,-8.86534 l -1.74523,-6.44741 -6.17541,-0.63241 c -3.39647,-0.34782 -11.05345,-1.63237 -17.015516,-2.85454 -10.23462,-2.09801 -11.00481,-2.43007 -13.78852,-5.94479 -7.99982,-10.10059 -14.11552,-29.95341 -14.27439,-46.33758 -0.0894,-9.2162 0.14622,-10.51318 3.00567,-16.54737 1.70645,-3.601052 4.55942,-8.206542 6.33992,-10.234432 4.27164,-4.86512 11.18172,-6.92963 36.949336,-11.03928 l 7.3919,-1.17892 1.3952,-5.47503 c 1.73928,-6.8253 4.57655,-10.02497 8.88952,-10.02497 2.47908,0 4.45212,-1.14634 8.57569,-4.98249 2.94568,-2.74037 6.13773,-4.99037 7.09344,-5 0.95571,-0.01 3.75734,2.12241 6.22585,4.73787 l 4.4882,4.75537 25.77415,-1.16862 c 14.17578,-0.64274 30.81335,-1.41491 36.97236,-1.71593 l 11.19822,-0.5473 -0.63141,5.21055 c -1.11663,9.21469 -1.16326,9.07293 3.23498,9.83607 4.74654,0.82358 21.09342,-0.40583 42.46466,-3.19366 45.9312,-5.99164 79.7476,-18.18724 129.53534,-46.71584 8.5684,-3.867968 8.6873,-4.903647 15.04087,-15.090223 1.04183,-1.041831 6.43159,5.38269 8.44795,10.069843 11.11688,25.8419 14.40142,110.913622 6.45946,167.304362 -1.55595,11.04779 -5.10108,27.91008 -6.36146,30.25802 -6.28441,-14.7821 -11.76062,-14.73349 -21.96716,-20.63836 -1.38005,-0.74152 -3.9504,-2.5335 -6.31691,-3.16824 -2.36651,-0.63475 -4.75275,-1.43333 -5.30275,-1.77463 -0.55,-0.3413 -1.45,-0.71429 -2,-0.82886 -0.55,-0.11457 -10.45,-3.00385 -22,-6.42061 -11.55,-3.41677 -22.125,-6.31466 -23.5,-6.43975 -1.375,-0.12509 -3.625,-0.50628 -5,-0.84709 -1.375,-0.34082 -3.625,-0.81937 -5,-1.06346 -1.375,-0.24409 -4.975,-0.93419 -8,-1.53355 -3.025,-0.59936 -7.75,-1.32974 -10.5,-1.62306 -2.75,-0.29332 -9.95,-1.17675 -16,-1.96319 -11.82172,-1.53669 -59.43567,-2.20086 -67.75982,-0.94519 -5.69015,0.85834 -6.30145,2.25309 -5.4482,12.4307 0.40226,4.79814 0.22636,6.73853 -0.61413,6.77488 -5.73848,0.24822 -17.6515,1.74114 -19.56735,2.45216 -2.24521,0.83325 -2.3529,1.23231 -1.78335,6.60852 0.33339,3.14694 0.91994,7.29671 1.30345,9.22171 l 0.6973,3.5 -2.78838,-3.29223 c -3.32643,-3.92751 -4.3081,-3.59472 -2.08389,0.70643 2.47045,4.77732 8.32832,27.03524 11.2078,42.5858 2.1022,11.35289 2.68327,18.09678 3.07316,35.66705 l 0.4808,21.66704 2.89131,2.77005 c 2.82171,7.94047 -2.65181,7.67955 -6.9922,9.91001 z m 0.52416,-86.72449 c -0.33734,-1.25931 -0.57429,-3.18966 -0.52655,-4.28966 0.0477,-1.1 0.49867,-0.24458 1.00207,1.90093 0.97494,4.1552 0.55831,6.24809 -0.47552,2.38873 z"
     id="path2930"
     sodipodi:nodetypes="ccsssssssssssssssssscccssssscccsssccccccssccssccssssssssssssssscccsscccccssc" />
</svg>
