<?xml version="1.0" encoding="UTF-8" standalone="no"?>
<!-- Created with Inkscape (http://www.inkscape.org/) -->

<svg
   xmlns:dc="http://purl.org/dc/elements/1.1/"
   xmlns:cc="http://creativecommons.org/ns#"
   xmlns:rdf="http://www.w3.org/1999/02/22-rdf-syntax-ns#"
   xmlns:svg="http://www.w3.org/2000/svg"
   xmlns="http://www.w3.org/2000/svg"
   xmlns:sodipodi="http://sodipodi.sourceforge.net/DTD/sodipodi-0.dtd"
   xmlns:inkscape="http://www.inkscape.org/namespaces/inkscape"
   width="48"
   height="48"
   id="svg2"
   version="1.1"
   inkscape:version="0.47pre4 r22446"
   sodipodi:docname="tree_list.svg"
   inkscape:export-filename="/home/mdupont/2009/11/RedLandMySql/root/static/icons/tree_list.png"
   inkscape:export-xdpi="114.91397"
   inkscape:export-ydpi="114.91397">
  <defs
     id="defs4">
    <inkscape:perspective
       sodipodi:type="inkscape:persp3d"
       inkscape:vp_x="0 : 526.18109 : 1"
       inkscape:vp_y="0 : 1000 : 0"
       inkscape:vp_z="744.09448 : 526.18109 : 1"
       inkscape:persp3d-origin="372.04724 : 350.78739 : 1"
       id="perspective10" />
  </defs>
  <sodipodi:namedview
     id="base"
     pagecolor="#ffffff"
     bordercolor="#666666"
     borderopacity="1.0"
     inkscape:pageopacity="0.0"
     inkscape:pageshadow="2"
     inkscape:zoom="10.291667"
     inkscape:cx="29.335331"
     inkscape:cy="25.177491"
     inkscape:document-units="px"
     inkscape:current-layer="layer1"
     showgrid="false"
     inkscape:window-width="869"
     inkscape:window-height="655"
     inkscape:window-x="14"
     inkscape:window-y="60"
     inkscape:window-maximized="0" />
  <metadata
     id="metadata7">
    <rdf:RDF>
      <cc:Work
         rdf:about="">
        <dc:format>image/svg+xml</dc:format>
        <dc:type
           rdf:resource="http://purl.org/dc/dcmitype/StillImage" />
        <dc:title></dc:title>
      </cc:Work>
    </rdf:RDF>
  </metadata>
  <g
     inkscape:label="Layer 1"
     inkscape:groupmode="layer"
     id="layer1"
     transform="translate(0,-1004.3622)">
    <text
       xml:space="preserve"
       style="font-size:10px;font-style:normal;font-weight:normal;fill:#000000;fill-opacity:1;stroke:none;font-family:Bitstream Vera Sans"
       x="8.9392719"
       y="1035.1638"
       id="text2816"><tspan
         sodipodi:role="line"
         id="tspan2818"
         x="8.9392719"
         y="1035.1638">TREE</tspan><tspan
         sodipodi:role="line"
         x="8.9392719"
         y="1051.6508"
         id="tspan2820"
         style="font-size:14px">LIST</tspan></text>
    <path
       sodipodi:type="arc"
       style="fill:#008000;fill-opacity:1;stroke:#000000;stroke-linecap:round;stroke-linejoin:round;stroke-opacity:1"
       id="path2822"
       sodipodi:cx="10.785425"
       sodipodi:cy="9.7651825"
       sodipodi:rx="3.5951416"
       sodipodi:ry="3.6437247"
       d="m 14.380567,9.7651825 a 3.5951416,3.6437247 0 1 1 -7.1902835,0 3.5951416,3.6437247 0 1 1 7.1902835,0 z"
       transform="translate(-3.4008097,1002.7104)" />
    <path
       sodipodi:type="arc"
       style="fill:#008000;fill-opacity:1;stroke:#000000;stroke-linecap:round;stroke-linejoin:round;stroke-opacity:1"
       id="path2824"
       sodipodi:cx="20.842106"
       sodipodi:cy="10.153846"
       sodipodi:rx="3.6437247"
       sodipodi:ry="3.7408907"
       d="m 24.485831,10.153846 a 3.6437247,3.7408907 0 1 1 -7.28745,0 3.6437247,3.7408907 0 1 1 7.28745,0 z"
       transform="translate(-2.7206478,1002.4189)" />
    <path
       sodipodi:type="arc"
       style="fill:#008000;fill-opacity:1;stroke:#000000;stroke-linecap:round;stroke-linejoin:round;stroke-opacity:1"
       id="path2826"
       sodipodi:cx="32.744938"
       sodipodi:cy="10.54251"
       sodipodi:rx="3.7894738"
       sodipodi:ry="3.6437247"
       d="m 36.534412,10.54251 a 3.7894738,3.6437247 0 1 1 -7.578948,0 3.7894738,3.6437247 0 1 1 7.578948,0 z"
       transform="translate(-3.3036437,1001.8359)" />
    <path
       sodipodi:type="arc"
       style="fill:#008000;fill-opacity:1;stroke:#000000;stroke-linecap:round;stroke-linejoin:round;stroke-opacity:1"
       id="path2828"
       sodipodi:cx="43.676113"
       sodipodi:cy="10.882591"
       sodipodi:rx="3.5465586"
       sodipodi:ry="3.6923077"
       d="m 47.222672,10.882591 a 3.5465586,3.6923077 0 1 1 -7.093117,0 3.5465586,3.6923077 0 1 1 7.093117,0 z"
       transform="translate(-3.7894737,1001.4472)" />
    <path
       sodipodi:type="star"
       style="fill:#008000;fill-opacity:1;stroke:#000000;stroke-linecap:round;stroke-linejoin:round;stroke-opacity:1"
       id="path2830"
       sodipodi:sides="3"
       sodipodi:cx="6.8987854"
       sodipodi:cy="13.991903"
       sodipodi:r1="2.4310923"
       sodipodi:r2="1.2155462"
       sodipodi:arg1="-1.610775"
       sodipodi:arg2="-0.56357746"
       inkscape:flatsided="false"
       inkscape:rounded="0"
       inkscape:randomized="0"
       d="m 6.8016196,11.562754 1.1247273,1.779788 1.124727,1.779788 -2.1037053,0.08415 -2.1037054,0.08415 0.9789781,-1.863936 0.9789783,-1.863936 z"
       transform="translate(0,1004.3622)" />
    <path
       sodipodi:type="star"
       style="fill:#008000;fill-opacity:1;stroke:#000000;stroke-linecap:round;stroke-linejoin:round;stroke-opacity:1"
       id="path2832"
       sodipodi:sides="3"
       sodipodi:cx="18.072874"
       sodipodi:cy="17.684211"
       sodipodi:r1="5.9279219"
       sodipodi:r2="2.9639611"
       sodipodi:arg1="-1.5544044"
       sodipodi:arg2="-0.5072068"
       inkscape:flatsided="false"
       inkscape:rounded="0"
       inkscape:randomized="0"
       d="m 18.17004,11.757086 2.493646,4.487418 2.493646,4.487418 -5.133041,-0.08415 -5.133041,-0.08415 2.639395,-4.40327 2.639395,-4.40327 z"
       transform="translate(0,1004.3622)" />
    <path
       sodipodi:type="star"
       style="fill:#008000;fill-opacity:1;stroke:#000000;stroke-linecap:round;stroke-linejoin:round;stroke-opacity:1"
       id="path2834"
       sodipodi:sides="3"
       sodipodi:cx="30.024291"
       sodipodi:cy="16.518219"
       sodipodi:r1="4.5678352"
       sodipodi:r2="2.2839177"
       sodipodi:arg1="-1.5495229"
       sodipodi:arg2="-0.50232539"
       inkscape:flatsided="false"
       inkscape:rounded="0"
       inkscape:randomized="0"
       d="m 30.121456,11.951417 1.904609,3.467176 1.904608,3.467175 -3.954966,-0.08415 -3.954966,-0.08415 2.050357,-3.383027 2.050358,-3.383027 z"
       transform="translate(0,1004.3622)" />
    <path
       sodipodi:type="star"
       style="fill:#008000;fill-opacity:1;stroke:#000000;stroke-linecap:round;stroke-linejoin:round;stroke-opacity:1"
       id="path2836"
       sodipodi:sides="3"
       sodipodi:cx="39.643725"
       sodipodi:cy="15.255061"
       sodipodi:r1="3.2079496"
       sodipodi:r2="1.6039749"
       sodipodi:arg1="-1.5405026"
       sodipodi:arg2="-0.49330502"
       inkscape:flatsided="false"
       inkscape:rounded="0"
       inkscape:randomized="0"
       d="m 39.740892,12.048583 1.315572,2.446933 1.315571,2.446932 -2.776892,-0.08415 -2.776891,-0.08415 1.46132,-2.362784 1.46132,-2.362785 z"
       transform="translate(0,1004.3622)" />
    <path
       style="fill:#008000;fill-opacity:1;stroke:#000000;stroke-linecap:round;stroke-linejoin:round;stroke-opacity:1"
       id="path2838"
       d="m 8.8796885,7.8979644 c 0.2622378,-0.048315 0.5286275,-0.069506 0.7949143,-0.060188 0.3358922,0.031282 0.6721912,0.052255 1.0093242,0.063411 0.387985,0.010366 0.776138,0.011213 1.164235,0.011525 0.266919,-1.628e-4 0.533837,-6.372e-4 0.800756,-6.498e-4 0.246078,-2.408e-4 0.492156,-2.83e-4 0.738235,-2.955e-4 0.219857,-6.76e-5 0.439715,-1.67e-4 0.659572,-2.192e-4 0.216734,-0.00375 0.430914,-0.048446 0.646588,-0.071118 0,0 -0.152829,0.1135337 -0.152829,0.1135337 l 0,0 c -0.216004,0.023302 -0.430638,0.068471 -0.64808,0.069705 -0.219663,-5.48e-5 -0.439327,-1.595e-4 -0.658991,-2.007e-4 -0.245987,2.85e-5 -0.491974,6.31e-5 -0.737961,1.083e-4 -0.266556,3.1e-4 -0.533112,5.334e-4 -0.799668,-1.992e-4 -0.387983,-0.00119 -0.776021,-0.00208 -1.163891,-0.012496 -0.337452,-0.011126 -0.6740174,-0.03232 -1.0103006,-0.062658 -0.2665453,-0.00716 -0.5331994,0.014712 -0.7951751,0.065789 0,0 0.1532712,-0.1160484 0.1532712,-0.1160484 z"
       transform="translate(0,1004.3622)" />
    <path
       style="fill:#008000;fill-opacity:1;stroke:#000000;stroke-linecap:round;stroke-linejoin:round;stroke-opacity:1"
       id="path2840"
       d="m 21.038042,8.1055513 c 0.381367,0.00377 0.762763,-0.00648 1.143696,0.013641 0.466872,0.023549 0.931354,0.069167 1.39598,0.1189038 0.32806,0.035977 0.657585,0.052542 0.98737,0.060094 0.228373,0.013258 0.451769,-0.033927 0.669383,-0.097374 0.178281,-0.089782 0.369351,-0.1482014 0.552606,-0.2265096 0,0 -0.149483,0.1180153 -0.149483,0.1180153 l 0,0 c -0.18406,0.076909 -0.373693,0.1397036 -0.554248,0.2249295 -0.218575,0.062671 -0.443138,0.1053575 -0.671878,0.091979 -0.329393,-0.00852 -0.658453,-0.026181 -0.986051,-0.062968 -0.464185,-0.050699 -0.928444,-0.095028 -1.394976,-0.1183227 -0.382273,-0.018887 -0.764979,-0.00922 -1.147633,-0.0096 0,0 0.155234,-0.1127841 0.155234,-0.1127841 z"
       transform="translate(0,1004.3622)" />
    <path
       style="fill:#008000;fill-opacity:1;stroke:#000000;stroke-linecap:round;stroke-linejoin:round;stroke-opacity:1"
       id="path2842"
       d="m 32.406463,7.6197213 c 0.278809,0.00109 0.557622,8.797e-4 0.836432,8.042e-4 0.315814,-0.014794 0.628491,0.015138 0.942296,0.044989 0.32335,0.030212 0.647921,0.04224 0.972481,0.049034 0.304166,-3.745e-4 0.609151,0.016427 0.912558,-0.00839 0.256857,-0.034814 0.514432,-0.060755 0.773211,-0.075349 0.03756,-0.00154 0.07512,-0.00308 0.112675,-0.00462 0,0 -0.153548,0.1125377 -0.153548,0.1125377 l 0,0 c -0.03745,0.00158 -0.0749,0.00316 -0.112345,0.00474 -0.258362,0.014923 -0.515349,0.042142 -0.77203,0.074949 -0.304054,0.02205 -0.609425,0.0075 -0.914077,0.00718 -0.324493,-0.00773 -0.648963,-0.020641 -0.972254,-0.050873 -0.313673,-0.029588 -0.626409,-0.05693 -0.941987,-0.043015 -0.279549,-7.58e-5 -0.559099,-2.801e-4 -0.838646,8.042e-4 0,0 0.155234,-0.1127841 0.155234,-0.1127841 z"
       transform="translate(0,1004.3622)" />
    <path
       style="fill:#008000;fill-opacity:1;stroke:#000000;stroke-linecap:round;stroke-linejoin:round;stroke-opacity:1"
       id="path2844"
       d="m 6.3041065,-1.6256413 c -0.00181,0.3166808 -0.00181,0.63337264 -0.00166,0.95005826 0.00228,0.41641782 -0.048336,0.83121564 -0.098459,1.24397175 C 6.17249,0.95383278 6.0808499,1.3290928 6.0012036,1.7061748 5.9609296,1.9581624 5.9220562,2.2092963 5.8739297,2.4599542 c -0.037674,0.1948891 -0.048061,0.3931776 -0.053946,0.5911072 -0.00399,0.1935266 -0.00316,0.3871109 -0.00288,0.5806665 -0.00453,0.1890045 0.036163,0.3745916 0.097434,0.5521652 0.061634,0.1677796 0.079778,0.3451305 0.090987,0.5221295 0.00499,0.126084 0.003,0.062853 0.00595,0.1896948 0,0 -0.1699689,0.08709 -0.1699689,0.08709 l 0,0 C 5.8387005,4.8563981 5.8406007,4.919392 5.8358212,4.7938248 5.8250851,4.6184794 5.8078802,4.4426641 5.7470539,4.2763614 5.6851913,4.0969773 5.6430858,3.9093512 5.6470043,3.7184292 5.646712,3.5247023 5.6458651,3.3309493 5.6496145,3.1372477 5.6552305,2.9383775 5.6650744,2.7390919 5.702563,2.5432105 5.7508611,2.2920936 5.7920827,2.0409146 5.8314662,1.7882603 5.9109585,1.4111311 6.0057367,1.0365077 6.0370981,0.6509019 6.086961,0.23913028 6.1370184,-0.17479827 6.1348,-0.59016267 c 1.546e-4,-0.31612188 1.573e-4,-0.63225003 -0.00166,-0.94836703 0,0 0.1709661,-0.087112 0.1709661,-0.087112 z"
       transform="translate(0,1004.3622)" />
  </g>
</svg>
