<?xml version="1.0" encoding="UTF-8" standalone="no"?>
<!-- Created with Inkscape (http://www.inkscape.org/) -->

<svg
   xmlns:dc="http://purl.org/dc/elements/1.1/"
   xmlns:cc="http://creativecommons.org/ns#"
   xmlns:rdf="http://www.w3.org/1999/02/22-rdf-syntax-ns#"
   xmlns:svg="http://www.w3.org/2000/svg"
   xmlns="http://www.w3.org/2000/svg"
   xmlns:sodipodi="http://sodipodi.sourceforge.net/DTD/sodipodi-0.dtd"
   xmlns:inkscape="http://www.inkscape.org/namespaces/inkscape"
   width="16"
   height="16"
   id="svg2"
   version="1.1"
   inkscape:version="0.47pre4 r22446"
   sodipodi:docname="type_decl.svg">
  <defs
     id="defs4">
    <inkscape:perspective
       sodipodi:type="inkscape:persp3d"
       inkscape:vp_x="0 : 526.18109 : 1"
       inkscape:vp_y="0 : 1000 : 0"
       inkscape:vp_z="744.09448 : 526.18109 : 1"
       inkscape:persp3d-origin="372.04724 : 350.78739 : 1"
       id="perspective10" />
    <inkscape:perspective
       id="perspective3000"
       inkscape:persp3d-origin="0.5 : 0.33333333 : 1"
       inkscape:vp_z="1 : 0.5 : 1"
       inkscape:vp_y="0 : 1000 : 0"
       inkscape:vp_x="0 : 0.5 : 1"
       sodipodi:type="inkscape:persp3d" />
  </defs>
  <sodipodi:namedview
     id="base"
     pagecolor="#ffffff"
     bordercolor="#666666"
     borderopacity="1.0"
     inkscape:pageopacity="0.0"
     inkscape:pageshadow="2"
     inkscape:zoom="1.5615289"
     inkscape:cx="2.8726205"
     inkscape:cy="11.534684"
     inkscape:document-units="px"
     inkscape:current-layer="layer1"
     showgrid="false"
     inkscape:window-width="1024"
     inkscape:window-height="743"
     inkscape:window-x="-3"
     inkscape:window-y="2"
     inkscape:window-maximized="1" />
  <metadata
     id="metadata7">
    <rdf:RDF>
      <cc:Work
         rdf:about="">
        <dc:format>image/svg+xml</dc:format>
        <dc:type
           rdf:resource="http://purl.org/dc/dcmitype/StillImage" />
        <dc:title />
      </cc:Work>
    </rdf:RDF>
  </metadata>
  <g
     inkscape:label="Layer 1"
     inkscape:groupmode="layer"
     id="layer1"
     transform="translate(0,-1036.3622)">
    <path
       style="fill:#008000"
       d="m 7.310646,1050.6801 c -0.264249,0.039 -0.8069407,0.3412 -1.0051748,0.044 -0.084496,-0.1388 -0.3540006,-0.9692 -0.4831425,-1.4886 -0.1400778,-0.5635 -0.2678697,-1.3664 -0.2920946,-1.8354 -0.019606,-0.3796 -0.015216,-0.4272 0.045829,-0.4946 0.059009,-0.065 0.060823,-0.08 0.01438,-0.1161 -0.042292,-0.033 -0.050828,-0.1162 -0.041828,-0.4078 0.00874,-0.2837 8.375e-4,-0.367 -0.035741,-0.3693 -0.025876,0 -0.093238,-0.01 -0.1496925,-0.02 -0.094621,-0.015 -0.09812,-0.012 -0.04475,0.041 0.04302,0.043 0.048734,0.075 0.022239,0.1246 -0.019606,0.037 -0.035658,0.1068 -0.035658,0.1559 0,0.058 -0.025124,0.097 -0.071161,0.1119 -0.1084162,0.034 -0.1433343,-0.01 -0.1427323,-0.1718 4.18e-4,-0.1627 0.023995,-0.2173 0.106673,-0.2488 0.029471,-0.011 -0.066208,-0.022 -0.2126563,-0.023 -0.2070964,-0.01 -0.2567374,0.01 -0.2233787,0.04 0.071086,0.071 0.048513,0.1005 -0.048788,0.063 -0.050423,-0.019 -0.2181324,-0.035 -0.3726824,-0.035 -0.2546264,0 -0.2873875,-0.01 -0.3489842,-0.086 -0.037372,-0.048 -0.096043,-0.1901 -0.1303502,-0.3168 l -0.062374,-0.2305 -0.2207159,-0.022 c -0.1213918,-0.013 -0.3950553,-0.058 -0.6081421,-0.102 -0.3657932,-0.075 -0.3933206,-0.087 -0.4928118,-0.2125 -0.2859202,-0.361 -0.5044957,-1.0705 -0.5101767,-1.6561 -0.00334,-0.3294 0.00523,-0.3758 0.1074254,-0.5914 0.060991,-0.1287 0.1629566,-0.2933 0.2265934,-0.3658 0.1526688,-0.1739 0.3996411,-0.2476 1.3205912,-0.3946 l 0.2641909,-0.042 0.049867,-0.1956 c 0.062161,-0.244 0.1635669,-0.3584 0.3177155,-0.3584 0.088606,0 0.1591233,-0.041 0.3064998,-0.178 0.105281,-0.098 0.2193656,-0.1784 0.2535229,-0.1787 0.034153,-4e-4 0.1342923,0.076 0.2225176,0.1693 l 0.1604107,0.1699 0.9211839,-0.042 c 0.506653,-0.023 1.1012883,-0.051 1.3214153,-0.062 l 0.40023,-0.02 -0.02257,0.1862 c -0.03992,0.3293 -0.04159,0.3243 0.115618,0.3515 0.169646,0.029 0.753893,-0.014 1.517714,-0.1141 1.6416104,-0.2142 2.8502284,-0.65 4.6296744,-1.6697 0.30624,-0.1382 0.310488,-0.1752 0.53757,-0.5393 0.03725,-0.037 0.229867,0.1923 0.301935,0.3599 0.397325,0.9236 0.514716,3.9641 0.230865,5.9796 -0.05561,0.3948 -0.182315,0.9975 -0.227362,1.0814 -0.224612,-0.5283 -0.420334,-0.5266 -0.785119,-0.7376 -0.04933,-0.027 -0.14119,-0.091 -0.22577,-0.1133 -0.08459,-0.023 -0.169867,-0.051 -0.189527,-0.063 -0.01965,-0.012 -0.05183,-0.025 -0.07148,-0.03 -0.01965,-0.01 -0.373489,-0.1075 -0.786294,-0.2295 -0.412805,-0.1222 -0.790763,-0.2257 -0.839907,-0.2302 -0.04914,-0.01 -0.12956,-0.018 -0.178699,-0.03 -0.04914,-0.012 -0.12956,-0.029 -0.178704,-0.038 -0.04914,-0.01 -0.177809,-0.034 -0.285924,-0.055 -0.108115,-0.022 -0.276991,-0.048 -0.375278,-0.058 -0.09829,-0.01 -0.355619,-0.042 -0.571849,-0.07 -0.422516,-0.055 -2.1242684,-0.079 -2.4217804,-0.034 -0.203368,0.03 -0.225218,0.08 -0.194723,0.4443 0.01438,0.1715 0.0081,0.2408 -0.02195,0.2421 -0.205098,0.01 -0.630879,0.062 -0.699352,0.088 -0.08024,0.03 -0.08409,0.044 -0.06374,0.2362 0.01192,0.1124 0.0329,0.2608 0.04658,0.3295 l 0.02492,0.1251 -0.09966,-0.1176 c -0.118888,-0.1404 -0.153973,-0.1285 -0.07448,0.025 0.0883,0.1707 0.297662,0.9662 0.400573,1.522 0.07514,0.4058 0.0959,0.6468 0.109837,1.2747 l 0.01718,0.7744 0.103337,0.099 c 0.10085,0.2838 -0.09478,0.2745 -0.249907,0.3541 z m 0.01873,-3.0995 c -0.01204,-0.045 -0.02053,-0.1141 -0.01881,-0.1534 0.0016,-0.039 0.01781,-0.01 0.03582,0.068 0.03486,0.1485 0.01994,0.2233 -0.01697,0.085 z"
       id="path2930"
       sodipodi:nodetypes="ccsssssssssssssssssscccssssscccsssccccccssccssccssssssssssssssscccsscccccssc" />
  </g>
</svg>
